# xmcd
#
# Track frame offsets: 
#        150
#        11400
#        27525
#        46125
#        82800
#        113550
#        129150
#        156225
#        166950
#        195900
#        228825
#        241650
#
# Disc length: 3665 seconds
#
# Revision: 0
# Processed by: cddbd v1.5.2PL0 Copyright (c) Steve Scherf et al.
# Submitted via: ExactAudioCopy v0.99pb4
#
DISCID=790e4f0c
DTITLE=群星 -  中国少年弹拨乐团专辑
DYEAR=1999
DGENRE=民乐
TTITLE0=春天
TTITLE1=湘调
TTITLE2=三六
TTITLE3=胡旋
TTITLE4=无词歌
TTITLE5=倒垂帘
TTITLE6=火凰
TTITLE7=拨弦波尔卡
TTITLE8=《玉堂春》序曲
TTITLE9=柔板
TTITLE10=春郊试马
TTITLE11=雨
EXTD=
EXTT0=
EXTT1=
EXTT2=
EXTT3=
EXTT4=
EXTT5=
EXTT6=
EXTT7=
EXTT8=
EXTT9=
EXTT10=
EXTT11=
PLAYORDER=
